<svg width="97" height="58" viewBox="0 0 97 58" fill="none" xmlns="http://www.w3.org/2000/svg">
<path d="M95.7833 10.4077C97.4108 8.78083 97.4112 6.14262 95.7846 4.51508L92.8387 1.5682C91.2121 -0.0593373 88.5737 -0.0599203 86.9462 1.56691L41.0258 47.4675C39.3984 49.0945 39.3979 51.7329 41.0246 53.3604L43.9704 56.307C45.5971 57.9345 48.2354 57.9354 49.8629 56.3083L95.7833 10.4077Z" fill="black"/>
<path d="M70.7853 10.4074C72.4124 8.78017 72.4124 6.14201 70.7853 4.51484L67.8391 1.56855C66.212 -0.0586575 63.5737 -0.0586575 61.9466 1.56855L22.1058 41.4092L10.5321 29.8354C8.90496 28.2083 6.26675 28.2083 4.63959 29.8354L1.69329 32.7817C0.0661019 34.4092 0.0661062 37.0471 1.69329 38.6746L19.1595 56.1408C20.7867 57.7679 23.4249 57.7679 25.0521 56.1408L70.7853 10.4074Z" fill="black"/>
</svg>
