<svg width="97" height="59" viewBox="0 0 97 59" fill="none" xmlns="http://www.w3.org/2000/svg">
<path d="M70.7853 11.0265C72.4124 9.39932 72.4124 6.76115 70.7853 5.13398L67.8391 2.18769C66.212 0.560483 63.5737 0.560483 61.9466 2.18769L22.1058 42.0283L10.5321 30.4546C8.90496 28.8275 6.26675 28.8275 4.63959 30.4546L1.69329 33.4008C0.0661019 35.0283 0.0661062 37.6662 1.69329 39.2937L19.1595 56.76C20.7867 58.3871 23.4249 58.3871 25.0521 56.76L70.7853 11.0265Z" fill="white"/>
<path d="M95.7833 11.0268C97.4108 9.39997 97.4112 6.76176 95.7846 5.13422L92.8387 2.18734C91.2121 0.559803 88.5737 0.55922 86.9462 2.18605L41.0258 48.0866C39.3984 49.7137 39.3979 52.352 41.0246 53.9795L43.9704 56.9262C45.5971 58.5537 48.2354 58.5545 49.8629 56.9274L95.7833 11.0268Z" fill="white"/>
</svg>
