<svg width="79" height="76" viewBox="0 0 79 76" fill="none" xmlns="http://www.w3.org/2000/svg">
<path fill-rule="evenodd" clip-rule="evenodd" d="M53.5344 30.7272L36.7824 46.6777C35.234 48.1524 32.7258 48.1524 31.1774 46.6777L22.8073 38.7062C21.2628 37.2391 21.2628 34.8578 22.8073 33.3869C24.3478 31.9198 26.8521 31.9198 28.3926 33.3869L31.1892 36.0503C32.7297 37.5174 35.23 37.5174 36.7745 36.0503L47.949 25.4079C49.4895 23.937 51.9899 23.937 53.5344 25.4079C55.0788 26.875 55.0788 29.2563 53.5344 30.7272ZM71.1 0H7.89999C3.53524 0 0 3.3669 0 7.52381V67.7143C0 71.8674 3.53524 75.2381 7.89999 75.2381H71.1C75.4648 75.2381 79 71.8674 79 67.7143V7.52381C79 3.3669 75.4648 0 71.1 0Z" fill="white"/>
</svg>
