<svg width="72" height="84" viewBox="0 0 72 84" fill="none" xmlns="http://www.w3.org/2000/svg">
<path d="M28.2979 16.4387C32.8386 16.4387 36.5187 12.7585 36.5187 8.2208C36.5187 3.67865 32.8386 0 28.2979 0C23.7587 0 20.0786 3.67865 20.0786 8.2208C20.0786 12.7585 23.7587 16.4387 28.2979 16.4387Z" fill="white"/>
<path d="M70.2481 47.9477C70.0986 46.9522 69.1699 46.2673 68.1715 46.4153L63.9618 47.0479L63.6004 44.6536C63.4511 43.6798 62.5455 43.0124 61.5733 43.1561L61.032 43.2375C60.9957 42.95 60.9333 42.6641 60.8129 42.3856L56.9049 33.3521C55.947 31.2101 53.3117 28.4544 51.2656 27.3067C51.2656 27.3067 39.2108 19.9115 38.2255 19.5516C37.6552 19.3456 37.047 19.2528 36.4289 19.2339L30.4021 31.2857L23.0929 21.4815C22.6358 21.7803 22.2382 22.0967 21.9623 22.4334L11.131 35.3256L2.21512 38.6125C0.526002 39.2349 -0.381122 41.0692 0.152894 42.7889L0.19504 42.921C0.718764 44.6116 2.9566 45.4461 4.68051 45.0483L11.4517 43.5362C13.2641 43.1184 14.9853 42.371 16.5264 41.3319L22.2903 36.3908L23.7314 48.5369C23.8621 49.5324 23.9026 49.766 23.4034 50.638L19.2384 57.3556C17.6321 59.9488 16.461 62.7887 15.7717 65.7622L12.6966 79.0069C12.3237 81.1357 13.7429 83.1658 15.8703 83.5505L16.0183 83.5766C18.0325 83.9378 19.9873 82.6973 20.5126 80.7206L25.3246 66.4891L32.6836 56.0975L38.7959 66.3253C39.176 67.0813 39.6767 67.7677 40.282 68.3582L51.6502 79.4728C53.084 80.8747 55.3535 80.9371 56.8613 79.6165L57.0428 79.4584C57.8148 78.7821 58.2835 77.8245 58.3459 76.7999C58.4068 75.7755 58.0556 74.7682 57.3693 74.0078L47.7698 63.3157L42.5557 48.032L41.5197 32.316L48.4157 35.253L54.6672 44.5812C54.2886 44.9658 54.0664 45.4954 54.152 46.0715L54.5133 48.4703L50.302 49.1028C49.3036 49.251 48.6186 50.181 48.7697 51.1794L50.498 62.6857C50.649 63.6812 51.5777 64.3689 52.5746 64.2179L70.4458 61.5333C71.4442 61.3809 72.129 60.4508 71.9795 59.4551L70.2481 47.9477ZM29.9524 36.7419C29.9524 36.0947 30.4761 35.5708 31.122 35.5708C31.7693 35.5708 32.2931 36.0945 32.2931 36.7419C32.2931 37.3891 31.7693 37.913 31.122 37.913C30.4761 37.913 29.9524 37.3891 29.9524 36.7419ZM31.6373 44.8741C30.9915 44.8741 30.4662 44.3488 30.4662 43.7017C30.4662 43.056 30.9915 42.5321 31.6373 42.5321C32.2845 42.5321 32.8084 43.0558 32.8084 43.7017C32.8084 44.3488 32.2843 44.8741 31.6373 44.8741ZM55.8949 46.1279C56.7946 46.839 58.0368 47.0277 59.1295 46.5314L59.2252 46.4906C59.9117 46.18 60.421 45.6462 60.733 45.0192L61.8287 44.8539L61.904 44.9091L62.2638 47.3034L56.2096 48.2148L55.8949 46.1279Z" fill="white"/>
<path d="M27.6263 24.8221L29.9902 27.9928L31.6517 24.6696L30.9931 19.4468C29.5274 19.5804 28.2039 19.8037 27.03 20.0955L27.6263 24.8221Z" fill="white"/>
</svg>
