<svg width="100" height="100" viewBox="0 0 100 100" fill="none" xmlns="http://www.w3.org/2000/svg">
<path d="M39.4285 67.9999L61.1428 46.2856M61.1428 67.9999L39.4285 46.2856" stroke="black" stroke-width="10" stroke-linecap="round"/>
<path d="M91.6666 49.1581C91.6666 38.1899 91.6666 32.7058 88.4603 29.1411C88.1657 28.8132 87.8537 28.5012 87.5257 28.2062C83.9607 25.0002 78.477 25.0002 67.5087 25.0002H65.9516C61.1445 25.0002 58.7412 25.0002 56.5016 24.3617C55.2712 24.011 54.0849 23.5198 52.967 22.8978C50.932 21.7655 49.2324 20.0659 45.8332 16.6668L43.5403 14.3741C42.4012 13.2349 41.8316 12.6652 41.233 12.169C38.6521 10.0295 35.486 8.71804 32.1481 8.40591C31.3739 8.3335 30.5683 8.3335 28.9572 8.3335C25.28 8.3335 23.4414 8.3335 21.9099 8.62245C15.1679 9.8945 9.89425 15.1681 8.62221 21.9101C8.33325 23.4416 8.33325 25.2802 8.33325 28.9575M91.6303 66.6668C91.4807 76.9985 90.7145 82.8556 86.7849 86.7851C81.9037 91.6668 74.0466 91.6668 58.3332 91.6668H41.6666C25.9531 91.6668 18.0964 91.6668 13.2148 86.7851C8.33325 81.9039 8.33325 74.0468 8.33325 58.3335V45.8335" stroke="black" stroke-width="10" stroke-linecap="round"/>
</svg>
