<svg width="150" height="150" viewBox="0 0 150 150" fill="none" xmlns="http://www.w3.org/2000/svg">
<rect width="150" height="150" rx="15" fill="#009999"/>
<path d="M104.189 138.505L75 124.912L45.8108 138.505V56.417H104.189V138.505Z" fill="#FFC700"/>
<path d="M104.189 139.559C104.084 139.559 103.873 139.559 103.768 139.454L75.0001 126.071L46.3377 139.454C46.0216 139.559 45.6001 139.559 45.284 139.348C44.9678 139.137 44.7571 138.821 44.7571 138.505V56.417C44.7571 55.7848 45.1786 55.3633 45.8108 55.3633H104.084C104.716 55.3633 105.138 55.7848 105.138 56.417V138.505C105.138 138.821 104.927 139.243 104.611 139.348C104.505 139.454 104.295 139.559 104.189 139.559ZM75.0001 123.858C75.1055 123.858 75.3162 123.858 75.4216 123.963L103.03 136.819V57.4708H46.8646V136.925L74.4732 124.069C74.684 123.963 74.8947 123.858 75.0001 123.858Z" fill="#6A576D"/>
<path d="M45.8108 101.624C46.2323 101.624 46.7592 101.518 47.1807 101.413C48.2344 106.893 53.0818 110.792 58.6667 110.792C60.985 110.792 63.1979 110.159 65.0947 108.789C67.3076 112.056 70.8904 113.953 74.7893 113.953C78.6882 113.953 82.3764 111.951 84.4839 108.789C86.3807 110.054 88.5936 110.792 90.9119 110.792C96.6022 110.792 101.344 106.787 102.398 101.413C102.819 101.518 103.346 101.518 103.768 101.624V56.312H45.8108V101.624Z" fill="black"/>
<path d="M79.742 14.8989C81.3227 17.8494 85.2216 18.587 87.856 16.4795C91.2281 13.8451 96.1807 15.8473 96.6023 20.0623C96.6965 20.8407 96.9567 21.5898 97.3652 22.259C97.7738 22.9282 98.3212 23.5019 98.9704 23.9414C99.6197 24.3809 100.356 24.676 101.129 24.8066C101.902 24.9373 102.694 24.9006 103.452 24.6989C107.561 23.5397 111.355 27.3333 110.196 31.443C109.247 34.7096 111.46 37.9763 114.832 38.2924C119.047 38.8193 121.155 43.772 118.415 47.0387C116.308 49.6731 117.045 53.572 119.996 55.1526C123.684 57.2602 123.684 62.529 119.996 64.6365C117.045 66.2172 116.308 70.1161 118.415 72.7505C121.05 76.1225 119.047 81.0752 114.832 81.4967C114.054 81.591 113.305 81.8511 112.636 82.2597C111.967 82.6682 111.393 83.2156 110.953 83.8649C110.514 84.5142 110.219 85.2502 110.088 86.0233C109.957 86.7964 109.994 87.5885 110.196 88.3462C111.355 92.4559 107.561 96.2494 103.452 95.0903C100.185 94.1419 96.9184 96.3548 96.6023 99.7268C96.0754 103.942 91.1227 106.049 87.856 103.31C85.2216 101.202 81.3227 101.94 79.742 104.89C77.6345 108.578 72.3657 108.578 70.2582 104.89C68.6775 101.94 64.7786 101.202 62.1442 103.31C58.7722 105.944 53.8195 103.942 53.398 99.7268C53.3037 98.9485 53.0435 98.1994 52.635 97.5302C52.2265 96.861 51.6791 96.2873 51.0298 95.8477C50.3805 95.4082 49.6445 95.1132 48.8714 94.9825C48.0983 94.8518 47.3062 94.8886 46.5485 95.0903C42.4388 96.2494 38.6453 92.4559 39.8044 88.3462C40.7528 85.0795 38.5399 81.8129 35.1679 81.4967C30.9528 80.9698 28.8453 76.0172 31.5851 72.7505C33.6926 70.1161 32.9549 66.2172 30.0044 64.6365C26.3162 62.529 26.3162 57.2602 30.0044 55.1526C32.9549 53.572 33.6926 49.6731 31.5851 47.0387C28.9506 43.6666 30.9528 38.7139 35.1679 38.2924C35.9462 38.1982 36.6953 37.938 37.3645 37.5295C38.0337 37.1209 38.6074 36.5735 39.0469 35.9242C39.4865 35.275 39.7815 34.5389 39.9122 33.7658C40.0429 32.9927 40.0061 32.2006 39.8044 31.443C38.6453 27.3333 42.4388 23.5397 46.5485 24.6989C49.8152 25.6473 53.0818 23.4344 53.398 20.0623C53.9248 15.8473 58.8775 13.7397 62.1442 16.4795C64.7786 18.587 68.6775 17.8494 70.2582 14.8989C72.3657 11.1053 77.6345 11.1053 79.742 14.8989Z" fill="#FFDD00"/>
<path d="M75 108.895C72.5763 108.895 70.4688 107.63 69.3097 105.523C68.572 104.153 67.0968 103.31 65.5161 103.31C64.5677 103.31 63.6194 103.626 62.7763 104.258C61.6172 105.206 60.2473 105.628 58.772 105.628C55.5054 105.628 52.6602 103.204 52.3441 99.8323C52.1333 97.6194 50.2366 95.9333 48.0237 95.9333C47.6022 95.9333 47.1806 96.0387 46.7591 96.1441C44.2301 96.8817 41.3849 95.9333 39.8043 93.8258C38.5398 92.2452 38.2237 90.1376 38.7505 88.1355C39.0667 86.871 38.8559 85.6065 38.2237 84.5527C37.486 83.4989 36.3269 82.7613 35.0624 82.6559C32.6387 82.3398 30.7419 80.8645 29.7935 78.6516C28.8452 76.4387 29.2667 74.0151 30.7419 72.1183C31.5849 71.0645 31.9011 69.8 31.5849 68.5355C31.3742 67.271 30.5312 66.2172 29.372 65.5849C27.2645 64.4258 26 62.3183 26 59.8946C26 57.471 27.2645 55.3634 29.372 54.2043C30.5312 53.572 31.2688 52.5183 31.5849 51.2538C31.7957 49.9892 31.4796 48.7247 30.7419 47.671C29.2667 45.7742 28.9505 43.3505 29.7935 41.1376C30.7419 38.9247 32.6387 37.4495 35.0624 37.1333C36.3269 37.028 37.486 36.2903 38.2237 35.2366C38.9613 34.1828 39.172 32.8129 38.7505 31.6538C38.2237 29.6516 38.5398 27.6495 39.8043 25.9634C41.3849 23.8559 44.2301 22.9075 46.7591 23.6452C47.1806 23.7505 47.6022 23.8559 48.0237 23.8559C50.2366 23.8559 52.1333 22.1699 52.3441 19.957C52.7656 16.6903 55.5054 14.1613 58.772 14.1613C60.2473 14.1613 61.6172 14.6882 62.7763 15.5312C63.6194 16.2688 64.4624 16.5849 65.5161 16.5849C67.0968 16.5849 68.572 15.7419 69.3097 14.372C70.4688 12.2645 72.5763 11 75 11C77.4237 11 79.5312 12.2645 80.6903 14.372C81.428 15.7419 82.9032 16.5849 84.4839 16.5849C85.4323 16.5849 86.3806 16.2688 87.2237 15.6366C88.3828 14.6882 89.7527 14.2667 91.228 14.2667C94.4946 14.2667 97.3398 16.6903 97.6559 20.0624C97.8667 22.2753 99.7634 23.9613 101.976 23.9613C102.398 23.9613 102.819 23.8559 103.241 23.7505C105.77 23.0129 108.615 23.9613 110.196 26.0688C111.46 27.6495 111.776 29.757 111.249 31.7591C110.933 33.0237 111.144 34.2882 111.776 35.3419C112.514 36.3957 113.673 37.1333 114.938 37.2387C117.361 37.5548 119.258 39.0301 120.206 41.243C121.155 43.4559 120.733 45.8796 119.258 47.7763C118.415 48.8301 118.099 50.0946 118.415 51.3591C118.626 52.6237 119.469 53.6774 120.628 54.3097C122.735 55.4688 124 57.5763 124 60C124 62.4237 122.735 64.5312 120.628 65.6903C119.469 66.3226 118.731 67.3763 118.415 68.6409C118.204 69.9054 118.52 71.1699 119.258 72.2237C120.733 74.1204 121.049 76.5441 120.206 78.757C119.258 80.9699 117.361 82.4452 114.938 82.7613C113.673 82.8667 112.514 83.6043 111.776 84.6581C111.039 85.7118 110.828 87.0817 111.249 88.2409C111.776 90.243 111.46 92.2452 110.196 93.9312C108.615 96.0387 105.77 96.9871 103.241 96.2495C102.819 96.1441 102.398 96.0387 101.976 96.0387C99.7634 96.0387 97.8667 97.7247 97.6559 99.9376C97.2344 103.204 94.4946 105.733 91.228 105.733C89.7527 105.733 88.3828 105.206 87.2237 104.363C86.486 103.731 85.5376 103.415 84.4839 103.415C82.9032 103.415 81.428 104.258 80.6903 105.628C79.5312 107.63 77.4237 108.895 75 108.895ZM65.5161 101.202C67.8344 101.202 70.0473 102.467 71.2065 104.574C71.9441 105.944 73.4194 106.787 75 106.787C76.5806 106.787 78.0559 105.944 78.7935 104.574C79.9527 102.467 82.0602 101.202 84.4839 101.202C85.9591 101.202 87.329 101.729 88.4882 102.572C89.2258 103.204 90.1742 103.52 91.228 103.52C93.1247 103.52 95.3376 102.151 95.5484 99.6215C95.9699 96.3548 98.7097 93.8258 101.976 93.8258C102.609 93.8258 103.135 93.9312 103.768 94.0366C105.559 94.5634 107.351 93.9312 108.51 92.4559C109.353 91.4021 109.563 89.9269 109.247 88.6624C108.72 86.871 109.037 84.8688 110.09 83.2882C111.144 81.7075 112.83 80.6538 114.727 80.443C116.308 80.2323 117.677 79.2839 118.31 77.8086C118.942 76.3333 118.731 74.6473 117.677 73.3828C116.518 71.9075 115.991 69.9054 116.413 68.114C116.834 66.2172 117.994 64.6366 119.68 63.6882C121.049 62.9505 121.892 61.4753 121.892 59.8946C121.892 58.314 121.049 56.8387 119.68 56.1011C117.994 55.1527 116.834 53.572 116.413 51.6753C115.991 49.7785 116.518 47.8817 117.677 46.4064C118.731 45.1419 118.942 43.4559 118.31 41.9806C117.677 40.5054 116.413 39.4516 114.727 39.3462C112.83 39.1355 111.144 38.0817 110.09 36.5011C109.037 34.9204 108.72 32.9183 109.247 31.1269C109.669 29.757 109.353 28.3871 108.51 27.3333C107.456 25.8581 105.559 25.2258 103.768 25.7527C103.135 25.9634 102.609 25.9634 101.976 25.9634C98.7097 25.9634 95.9699 23.5398 95.5484 20.1677C95.2323 17.6387 93.1247 16.2688 91.228 16.2688C90.2796 16.2688 89.3312 16.5849 88.4882 17.2172C87.329 18.1656 85.9591 18.5871 84.4839 18.5871C82.1656 18.5871 79.9527 17.3226 78.7935 15.2151C78.0559 13.9505 76.5806 13.1075 75 13.1075C73.4194 13.1075 71.9441 13.9505 71.2065 15.3204C70.0473 17.428 67.9398 18.6925 65.5161 18.6925C64.0409 18.6925 62.671 18.1656 61.5118 17.3226C60.7742 16.6903 59.8258 16.3742 58.772 16.3742C56.8753 16.3742 54.6624 17.7441 54.4516 20.2731C54.0301 23.5398 51.2903 26.0688 48.0237 26.0688C47.3914 26.0688 46.8645 25.9634 46.2323 25.8581C44.4409 25.3312 42.6495 25.9634 41.4903 27.4387C40.6473 28.4925 40.4366 29.9677 40.7527 31.2323C41.2796 33.0237 40.9634 35.0258 39.9097 36.6064C38.8559 38.1871 37.1699 39.2409 35.2731 39.4516C33.6925 39.6624 32.3226 40.6108 31.6903 42.086C31.0581 43.5613 31.2688 45.2473 32.3226 46.5118C33.4817 47.9871 34.0086 49.8839 33.5871 51.7806C33.1656 53.6774 32.0065 55.2581 30.3204 56.2065C28.9505 56.9441 28.1075 58.4194 28.1075 60C28.1075 61.5806 28.9505 63.0559 30.3204 63.7935C32.0065 64.7419 33.1656 66.3226 33.5871 68.2194C34.0086 70.1161 33.4817 72.0129 32.3226 73.4882C31.2688 74.7527 31.0581 76.4387 31.6903 77.914C32.3226 79.3892 33.5871 80.443 35.2731 80.5484C37.1699 80.7591 38.8559 81.8129 39.9097 83.3935C40.9634 84.9742 41.2796 86.9763 40.7527 88.7677C40.3312 90.1376 40.6473 91.5075 41.4903 92.5613C42.5441 94.0366 44.4409 94.6688 46.2323 94.1419C46.8645 93.9312 47.3914 93.9312 48.0237 93.9312C51.2903 93.9312 54.0301 96.3548 54.4516 99.7269C54.7677 102.256 56.8753 103.626 58.772 103.626C59.7204 103.626 60.6688 103.31 61.5118 102.677C62.671 101.624 64.0409 101.202 65.5161 101.202Z" fill="#6A576D"/>
<path d="M75 108.895C72.5763 108.895 70.4688 107.63 69.3097 105.523C68.572 104.153 67.0968 103.31 65.5161 103.31C64.5677 103.31 63.6194 103.626 62.7763 104.258C61.6172 105.206 60.2473 105.628 58.772 105.628C55.5054 105.628 52.6602 103.204 52.3441 99.8323C52.1333 97.6194 50.2366 95.9333 48.0237 95.9333C47.6022 95.9333 47.1806 96.0387 46.7591 96.1441C44.2301 96.8817 41.3849 95.9333 39.8043 93.8258C38.5398 92.2452 38.2237 90.1376 38.7505 88.1355C39.0667 86.871 38.8559 85.6065 38.2237 84.5527C37.486 83.4989 36.3269 82.7613 35.0624 82.6559C32.6387 82.3398 30.7419 80.8645 29.7935 78.6516C28.8452 76.4387 29.2667 74.0151 30.7419 72.1183C31.5849 71.0645 31.9011 69.8 31.5849 68.5355C31.3742 67.271 30.5312 66.2172 29.372 65.5849C27.2645 64.4258 26 62.3183 26 59.8946C26 57.471 27.2645 55.3634 29.372 54.2043C30.5312 53.572 31.2688 52.5183 31.5849 51.2538C31.7957 49.9892 31.4796 48.7247 30.7419 47.671C29.2667 45.7742 28.9505 43.3505 29.7935 41.1376C30.7419 38.9247 32.6387 37.4495 35.0624 37.1333C36.3269 37.028 37.486 36.2903 38.2237 35.2366C38.9613 34.1828 39.172 32.8129 38.7505 31.6538C38.2237 29.6516 38.5398 27.6495 39.8043 25.9634C41.3849 23.8559 44.2301 22.9075 46.7591 23.6452C47.1806 23.7505 47.6022 23.8559 48.0237 23.8559C50.2366 23.8559 52.1333 22.1699 52.3441 19.957C52.7656 16.6903 55.5054 14.1613 58.772 14.1613C60.2473 14.1613 61.6172 14.6882 62.7763 15.5312C63.6194 16.2688 64.4624 16.5849 65.5161 16.5849C67.0968 16.5849 68.572 15.7419 69.3097 14.372C70.4688 12.2645 72.5763 11 75 11C77.4237 11 79.5312 12.2645 80.6903 14.372C81.428 15.7419 82.9032 16.5849 84.4839 16.5849C85.4323 16.5849 86.3806 16.2688 87.2237 15.6366C88.3828 14.6882 89.7527 14.2667 91.228 14.2667C94.4946 14.2667 97.3398 16.6903 97.6559 20.0624C97.8667 22.2753 99.7634 23.9613 101.976 23.9613C102.398 23.9613 102.819 23.8559 103.241 23.7505C105.77 23.0129 108.615 23.9613 110.196 26.0688C111.46 27.6495 111.776 29.757 111.249 31.7591C110.933 33.0237 111.144 34.2882 111.776 35.3419C112.514 36.3957 113.673 37.1333 114.938 37.2387C117.361 37.5548 119.258 39.0301 120.206 41.243C121.155 43.4559 120.733 45.8796 119.258 47.7763C118.415 48.8301 118.099 50.0946 118.415 51.3591C118.626 52.6237 119.469 53.6774 120.628 54.3097C122.735 55.4688 124 57.5763 124 60C124 62.4237 122.735 64.5312 120.628 65.6903C119.469 66.3226 118.731 67.3763 118.415 68.6409C118.204 69.9054 118.52 71.1699 119.258 72.2237C120.733 74.1204 121.049 76.5441 120.206 78.757C119.258 80.9699 117.361 82.4452 114.938 82.7613C113.673 82.8667 112.514 83.6043 111.776 84.6581C111.039 85.7118 110.828 87.0817 111.249 88.2409C111.776 90.243 111.46 92.2452 110.196 93.9312C108.615 96.0387 105.77 96.9871 103.241 96.2495C102.819 96.1441 102.398 96.0387 101.976 96.0387C99.7634 96.0387 97.8667 97.7247 97.6559 99.9376C97.2344 103.204 94.4946 105.733 91.228 105.733C89.7527 105.733 88.3828 105.206 87.2237 104.363C86.486 103.731 85.5376 103.415 84.4839 103.415C82.9032 103.415 81.428 104.258 80.6903 105.628C79.5312 107.63 77.4237 108.895 75 108.895ZM65.5161 101.202C67.8344 101.202 70.0473 102.467 71.2065 104.574C71.9441 105.944 73.4194 106.787 75 106.787C76.5806 106.787 78.0559 105.944 78.7935 104.574C79.9527 102.467 82.0602 101.202 84.4839 101.202C85.9591 101.202 87.329 101.729 88.4882 102.572C89.2258 103.204 90.1742 103.52 91.228 103.52C93.1247 103.52 95.3376 102.151 95.5484 99.6215C95.9699 96.3548 98.7097 93.8258 101.976 93.8258C102.609 93.8258 103.135 93.9312 103.768 94.0366C105.559 94.5634 107.351 93.9312 108.51 92.4559C109.353 91.4021 109.563 89.9269 109.247 88.6624C108.72 86.871 109.037 84.8688 110.09 83.2882C111.144 81.7075 112.83 80.6538 114.727 80.443C116.308 80.2323 117.677 79.2839 118.31 77.8086C118.942 76.3333 118.731 74.6473 117.677 73.3828C116.518 71.9075 115.991 69.9054 116.413 68.114C116.834 66.2172 117.994 64.6366 119.68 63.6882C121.049 62.9505 121.892 61.4753 121.892 59.8946C121.892 58.314 121.049 56.8387 119.68 56.1011C117.994 55.1527 116.834 53.572 116.413 51.6753C115.991 49.7785 116.518 47.8817 117.677 46.4064C118.731 45.1419 118.942 43.4559 118.31 41.9806C117.677 40.5054 116.413 39.4516 114.727 39.3462C112.83 39.1355 111.144 38.0817 110.09 36.5011C109.037 34.9204 108.72 32.9183 109.247 31.1269C109.669 29.757 109.353 28.3871 108.51 27.3333C107.456 25.8581 105.559 25.2258 103.768 25.7527C103.135 25.9634 102.609 25.9634 101.976 25.9634C98.7097 25.9634 95.9699 23.5398 95.5484 20.1677C95.2323 17.6387 93.1247 16.2688 91.228 16.2688C90.2796 16.2688 89.3312 16.5849 88.4882 17.2172C87.329 18.1656 85.9591 18.5871 84.4839 18.5871C82.1656 18.5871 79.9527 17.3226 78.7935 15.2151C78.0559 13.9505 76.5806 13.1075 75 13.1075C73.4194 13.1075 71.9441 13.9505 71.2065 15.3204C70.0473 17.428 67.9398 18.6925 65.5161 18.6925C64.0409 18.6925 62.671 18.1656 61.5118 17.3226C60.7742 16.6903 59.8258 16.3742 58.772 16.3742C56.8753 16.3742 54.6624 17.7441 54.4516 20.2731C54.0301 23.5398 51.2903 26.0688 48.0237 26.0688C47.3914 26.0688 46.8645 25.9634 46.2323 25.8581C44.4409 25.3312 42.6495 25.9634 41.4903 27.4387C40.6473 28.4925 40.4366 29.9677 40.7527 31.2323C41.2796 33.0237 40.9634 35.0258 39.9097 36.6064C38.8559 38.1871 37.1699 39.2409 35.2731 39.4516C33.6925 39.6624 32.3226 40.6108 31.6903 42.086C31.0581 43.5613 31.2688 45.2473 32.3226 46.5118C33.4817 47.9871 34.0086 49.8839 33.5871 51.7806C33.1656 53.6774 32.0065 55.2581 30.3204 56.2065C28.9505 56.9441 28.1075 58.4194 28.1075 60C28.1075 61.5806 28.9505 63.0559 30.3204 63.7935C32.0065 64.7419 33.1656 66.3226 33.5871 68.2194C34.0086 70.1161 33.4817 72.0129 32.3226 73.4882C31.2688 74.7527 31.0581 76.4387 31.6903 77.914C32.3226 79.3892 33.5871 80.443 35.2731 80.5484C37.1699 80.7591 38.8559 81.8129 39.9097 83.3935C40.9634 84.9742 41.2796 86.9763 40.7527 88.7677C40.3312 90.1376 40.6473 91.5075 41.4903 92.5613C42.5441 94.0366 44.4409 94.6688 46.2323 94.1419C46.8645 93.9312 47.3914 93.9312 48.0237 93.9312C51.2903 93.9312 54.0301 96.3548 54.4516 99.7269C54.7677 102.256 56.8753 103.626 58.772 103.626C59.7204 103.626 60.6688 103.31 61.5118 102.677C62.671 101.624 64.0409 101.202 65.5161 101.202Z" fill="#6A576D"/>
<path d="M78.3721 84.342C76.37 84.342 74.7893 82.7614 74.7893 80.7592V50.6216L65.9377 58.7356C64.4624 60.1055 62.1442 60.0001 60.8796 58.5248C59.5098 57.0496 59.6151 54.7313 61.0904 53.4668L75.9485 39.7678C77.0022 38.8194 78.5829 38.5033 79.8474 39.1356C81.1119 39.6625 81.9549 41.0324 81.9549 42.4022V80.6539C81.9549 82.656 80.3743 84.342 78.3721 84.342Z" fill="white"/>
<path d="M78.372 85.3958C75.8429 85.3958 73.7354 83.2883 73.7354 80.7593V53.0453L66.6752 59.4732C65.8322 60.3162 64.673 60.7378 63.5139 60.7378C62.2494 60.7378 60.9849 60.2109 60.0365 59.2625C59.1935 58.3141 58.772 57.155 58.772 55.8904C58.8773 54.6259 59.4042 53.4668 60.2472 52.6238L75.1053 38.9249C76.4752 37.6603 78.4774 37.3442 80.1634 38.0818C81.8494 38.8195 82.9032 40.5055 82.9032 42.4023V80.6539C83.0085 83.2883 81.0064 85.3958 78.372 85.3958ZM74.7892 49.5679C74.8946 49.5679 75.1053 49.5679 75.2107 49.6732C75.6322 49.884 75.8429 50.2001 75.8429 50.6216V80.7593C75.8429 82.1292 77.0021 83.2883 78.372 83.2883C79.7419 83.2883 80.901 82.1292 80.901 80.7593V42.4023C80.901 41.3485 80.2687 40.5055 79.3204 40.084C78.372 39.6625 77.3182 39.8732 76.5806 40.5055L61.7225 54.2044C61.1956 54.6259 60.8795 55.2582 60.8795 55.9958C60.8795 56.7335 61.0903 57.3657 61.5118 57.7872C62.4601 58.841 64.1462 58.841 65.0946 57.8926L73.9462 49.7786C74.2623 49.6732 74.473 49.5679 74.7892 49.5679Z" fill="#6A576D"/>
</svg>
